<?xml version="1.0" encoding="utf-8"?>
<?xml-stylesheet type="text/xsl" href="rss1.xsl"?>
<rss version="2.0" xmlns:atom="http://www.w3.org/2005/Atom" xmlns:content="http://purl.org/rss/1.0/modules/content/" xmlns:dc="http://purl.org/dc/elements/1.1/" xmlns:media="http://search.yahoo.com/mrss/">
<channel>
 <title>Getty</title>
 <link>http://www.gettyimg.com/</link>
 <atom:link href="http://www.gettyimg.com/" rel="self" type="application/rss+xml" />

 
                <item>
                <title><![CDATA[【Apple Music】WEB-RiP - Drake - First Person Shooter (feat. J. Cole) [Apple HD Music Video]]]></title>
                <link><![CDATA[https://sharemania.us/threads/drake-first-person-shooter-feat-j-cole-apple-hd-music-video.242355/]]></link>
                <description><![CDATA[<article>
<blockquote class="messageText SelectQuoteContainer ugc baseHtml">
<span style="font-size: 22px"><b>Drake - First Person Shooter (feat. J. Cole) [Apple HD Music Video]</b></span><br>
<br>
<img src="https://imgur.com/UDUTE2k.jpg" class="bbCodeImage LbImage" alt="[​IMG]" data-url="https://imgur.com/UDUTE2k.jpg" style=""><br>
<br>
<div class="bbCodeBlock bbCodeCode">
<div class="type">Code:</div>
<pre>General
Format                         : MPEG-4
Codec ID                       : M4V  (isom/iso4/M4V /mp42)
File size                      : 367 MiB
Duration                       : 5 min 0 s
Overall bit rate mode          : Variable
Overall bit rate               : 10.2 Mb/s
Movie name                     : First Person Shooter (feat. J. Cole)
Performer                      : Drake
Genre                          : Hip-Hop/Rap
ContentType                    : Music Video
Recorded date                  : UTC 2023-11-16 08:00:00
Encoded date                   : UTC 2024-03-12 18:24:56
Tagged date                    : UTC 2024-03-12 18:24:56
Copyright                      : ℗ 2023 OVO, under exclusive license to Republic Records, a division of UMG Recordings, Inc.
Cover                          : Yes
Rating                         : Explicit
GenreID                        : 1618
AppleStoreCountry              : Canada
AlbumTitleID                   : 271256
AppleStoreCatalogID            : 1717084940

Video
ID                             : 2
Format                         : AVC
Format/Info                    : Advanced Video Codec
Format profile                 : High@L4
Format settings                : CABAC / 4 Ref Frames
Format settings, CABAC         : Yes
Format settings, Reference fra : 4 frames
Codec ID                       : avc1
Codec ID/Info                  : Advanced Video Coding
Duration                       : 5 min 0 s
Duration_FirstFrame            : 42 ms
Bit rate                       : 9 957 kb/s
Maximum bit rate               : 20.0 Mb/s
Width                          : 1 920 pixels
Height                         : 1 080 pixels
Display aspect ratio           : 16:9
Frame rate mode                : Constant
Frame rate                     : 23.976 (24000/1001) FPS
Color space                    : YUV
Chroma subsampling             : 4:2:0
Bit depth                      : 8 bits
Scan type                      : Progressive
Bits/(Pixel*Frame)             : 0.200
Stream size                    : 357 MiB (97%)
Title                          : Core Media Video
Language                       : English
Encoded date                   : UTC 2024-02-17 14:58:15
Tagged date                    : UTC 2024-03-12 18:27:20
Color range                    : Limited
Color primaries                : BT.709
Transfer characteristics       : BT.709
Matrix coefficients            : BT.709
Codec configuration box        : avcC

Audio
ID                             : 1
Format                         : AAC LC
Format/Info                    : Advanced Audio Codec Low Complexity
Codec ID                       : mp4a-40-2
Duration                       : 5 min 0 s
Duration_LastFrame             : -11 ms
Bit rate mode                  : Variable
Bit rate                       : 265 kb/s
Maximum bit rate               : 483 kb/s
Channel(s)                     : 2 channels
Channel layout                 : L R
Sampling rate                  : 48.0 kHz
Frame rate                     : 46.875 FPS (1024 SPF)
Compression mode               : Lossy
Stream size                    : 9.41 MiB (3%)
Title                          : Core Media Audio
Encoded date                   : UTC 2024-02-17 14:58:07
Tagged date                    : UTC 2024-03-12 18:27:20

Text
ID                             : 3
Format                         : EIA-608
Codec ID                       : c608
Duration                       : 4 min 59 s
Bit rate mode                  : Variable
Bit rate                       : 220 b/s
Maximum bit rate               : 1 520 b/s
Frame rate                     : 0.451 FPS
Stream size                    : 8.05 KiB (0%)
Title                          : Core Media Closed Caption
Language                       : English
Forced                         : No
Encoded date                   : UTC 2024-02-17 14:58:15
Tagged date                    : UTC 2024-03-12 18:27:20
</pre>
</div>
<div class="bbCodeBlock bbCodeVfcHH HiddenContent">
<div class="attribution type">Hidden Content:</div>
<blockquote>You must reply before you can see the hidden data contained here.</blockquote>
</div>
<div class="messageTextEndMarker">&nbsp;</div>
</blockquote>
</article>]]></description>
                <author><![CDATA[abby0511]]></author>
                </item>

                </channel></rss>